.
 
http://www.scenetime.com    -   SceneTime [ We been having it ] !!!


How come you press harder on a remote control when you know the battery is dead? so you better seed to get speed ;)

        Seed back for speed


...................................NFO:.................................................[img]http://img857.imageshack.us/img857/2391/theadjustmentbureaubd.jpg[/img]

[color=blue][size=4][b]The.Adjustment.Bureau.2011.BDRip.XVID.AC3.HQ.Hive-CM8[/b][/size][/color]


[b]Thx Hive

CM8 Doing It Right The First Time :D

Source Bluray

Video: 720x384 @bitrate 1800 2pass
Audio: English DTS to AC3 5.1 @448
Sample: yes included
Subs: yes english in srt /subs[/b]


[url]http://www.imdb.com/title/tt1385826/[/url]


General
Complete name                    : The.Adjustment.Bureau.2011.BDRip.XVID.AC3.HQ.Hive-CM8.avi
Format                           : AVI
Format/Info                      : Audio Video Interleave
File size                        : 1.67 GiB
Duration                         : 1h 45mn
Overall bit rate                 : 2 259 Kbps
Writing application              : Nandub v1.0rc2
Writing library                  : Nandub build 1853/release

Video
ID                               : 0
Format                           : MPEG-4 Visual
Format profile                   : Advanced Simple@L5
Format settings, BVOP            : 1
Format settings, QPel            : Yes
Format settings, GMC             : No warppoints
Format settings, Matrix          : Default (H.263)
Muxing mode                      : Packed bitstream
Codec ID                         : XVID
Codec ID/Hint                    : XviD
Duration                         : 1h 45mn
Bit rate                         : 1 802 Kbps
Width                            : 720 pixels
Height                           : 384 pixels
Display aspect ratio             : 1.850
Frame rate                       : 23.976 fps
Color space                      : YUV
Chroma subsampling               : 4:2:0
Bit depth                        : 8 bits
Scan type                        : Progressive
Compression mode                 : Lossy
Bits/(Pixel*Frame)               : 0.272
Stream size                      : 1.33 GiB (80%)
Writing library                  : XviD 1.2.1 (UTC 2008-12-04)

Audio
ID                               : 1
Format                           : AC-3
Format/Info                      : Audio Coding 3
Mode extension                   : CM (complete main)
Codec ID                         : 2000
Duration                         : 1h 45mn
Bit rate mode                    : Constant
Bit rate                         : 448 Kbps
Channel(s)                       : 6 channels
Channel positions                : Front: L C R, Side: L R, LFE
Sampling rate                    : 48.0 KHz
Bit depth                        : 16 bits
Compression mode                 : Lossy
Stream size                      : 339 MiB (20%)
Alignment                        : Split accross interleaves
Interleave, duration             : 42 ms (1.00 video frame)
Interleave, preload duration     : 500 ms


Matt Damon ... David Norris
Emily Blunt ... Elise Sellas
Florence Kastriner ... Suburban Mom
Phyllis MacBryde ... Suburban Neighbor
Natalie Carter ... Suburban Neighbor (as Natalie E. Carter)
Chuck Scarborough ... Himself
Jon Stewart ... Himself
Gregory P. Hitchen ... U.S. Coast Guard Officer
(as Capt. Gregory P. Hitchen)
Darrell Lenormand ... Upstate Farmer
Kar ... Political Consultant
Michael Kelly ... Charlie Traynor
RJ Konner ... Political Consultant


The affair between a politician and a ballerina is affected
by mysterious forces keeping the lovers apart. 
 
[img]http://img89.imageshack.us/img89/1500/18199618.png[/img]
[img]http://img88.imageshack.us/img88/6710/bubun.png[/img]
[img]http://img35.imageshack.us/img35/9386/bububu.png[/img]
[img]http://img5.imageshack.us/img5/7119/bubububu.png[/img]
[img]http://img59.imageshack.us/img59/6527/bububububu.png[/img]
[img]http://img864.imageshack.us/img864/5783/bubububububuxu.png[/img]
[img]http://img823.imageshack.us/img823/6088/bububububububu.png[/img]
[img]http://img62.imageshack.us/img62/8933/bubububububububu.png[/img]
[img]http://img38.imageshack.us/img38/1264/bububububububububu.png[/img]
[img]http://img854.imageshack.us/img854/6749/bubububububububububu.png[/img]
[img]http://img90.imageshack.us/img90/9118/bububububububububububu.png[/img]

covers+labels:

[img]http://img204.imageshack.us/img204/2391/theadjustmentbureaumovi.jpg[/img]

[img]http://img705.imageshack.us/img705/8710/theadjustmentbureaulabe.jpg[/img]

[img]http://img19.imageshack.us/img19/3566/theadjustmentbureau2011j.jpg[/img]






Greetz

ViSiON,SANTi,MAGNET,THC,T0XiC,iNK,LKRG,IMAGiNE,WBZ,FLAWL3SS,NOVA
Vik,OneTwo,Rapeseed,D2U,SAFC,goldadvance,MEMORY100,KaN1vE,Unevano,Pinnz,Wayne,Mr Hive
and all P2P groups 
Great Work Guys :D

FYS

CM8@hushmail.com